<?xml version="1.0" encoding="utf-8"?>
<!-- Generator: Adobe Illustrator 16.0.0, SVG Export Plug-In . SVG Version: 6.00 Build 0)  -->
<!DOCTYPE svg PUBLIC "-//W3C//DTD SVG 1.1//EN" "http://www.w3.org/Graphics/SVG/1.1/DTD/svg11.dtd">
<svg version="1.1" id="Layer_1" xmlns="http://www.w3.org/2000/svg" xmlns:xlink="http://www.w3.org/1999/xlink" x="0px" y="0px"
	 width="69.762px" height="70.75px" viewBox="0 0 69.762 70.75" enable-background="new 0 0 69.762 70.75" xml:space="preserve">
<path fill="#FFFFFF" fill-opacity="0.6" d="M56.657,55.291l0.279-0.28L56.657,55.291z M18.871,46.552l0.158,0.157L18.871,46.552z
	 M49.107,53.036l0.209-0.209l0.123,0.105l-0.35,0.419L49.107,53.036L49.107,53.036z M47.272,52.896h0.158l0.157-0.157l0.157-0.157
	l0.157-0.158v-0.158l-0.157-0.296h0.751l-0.158,0.157h-0.157v0.157l-0.157,0.157l-0.157,0.157l-0.158,0.158l-0.158,0.157
	l-0.157,0.157l-0.297,0.157v0.157h-0.158v-0.297h0.158L47.272,52.896l-0.122-0.174l-0.332,0.332l-0.158,0.298L47.272,52.896
	L47.272,52.896z M20.986,16.508h0.157v-0.455l0.298-0.157l-0.123-0.157l-0.437,0.384l0.402-0.332l-0.279-0.157h0.157v-0.35h-0.297
	l-0.158,0.157v0.314L20.986,16.508z M18.871,17.4h-0.157l-0.14,0.157V17.4H18.871z M18.417,17.557l-1.206,1.502h0.157v-0.157
	l0.157-0.158v-0.157h0.158l0.157-0.157l0.157-0.157v-0.157h0.123l0.157-0.158v-0.157h0.157v-0.157l0.158-0.157L18.417,17.557z
	 M17.071,19.217h0.157v0.157h-0.297L17.071,19.217z M16.914,19.514l0.158,0.157L16.914,19.514z M16.914,19.968L16.914,19.968z
	 M16.162,21.035L16.162,21.035z M15.848,21.489l-0.158,0.157l-0.157,0.157v-0.157L15.848,21.489z M14.957,21.629h0.157v0.158
	L14.957,21.629z M14.957,21.943v0.158l-0.297,0.157v0.315l-0.454,0.454l-0.157,0.158v0.157L14.957,21.943z M11.933,24.198
	l-0.175,0.175l-0.052-0.158l0.088-0.332h-0.315v-0.158h0.157v-0.454h0.158v-0.28h0.157v-0.315h0.157V22.52l0.158-0.297l0.157-0.157
	h0.104v-0.157l0.157-0.297l0.158-0.157L12.999,21v-0.122h0.157l0.158-0.298l0.157-0.157l0.157-0.157v-0.157l0.157-0.157l0.157-0.158
	v-0.297H14.1v-0.157L11.933,24.198L11.933,24.198z M13.89,19.375l-0.14-0.157h-0.158l-0.157,0.157v0.157l-0.157,0.158l-0.157,0.157
	v0.158h-0.157l-0.158,0.297l-0.157,0.297l-0.157,0.157l-0.158,0.297v0.157l-0.157,0.157v0.157H12.02v0.315l-0.506,0.419l0.349-0.577
	v-0.297h-0.157l-0.158,0.157l-0.157,0.297l-0.157,0.297l-0.157,0.296l-0.157,0.297l-0.158,0.158v0.297h0.28l0.175-0.297V22.73h0.262
	l-0.157,0.297v0.158l-0.157,0.157l-0.157,0.158v0.297h-0.158l-0.314,0.594l0.174-0.594l-0.157-0.158v0.158l-0.157,0.157
	l-0.158,0.297l-0.157,0.297v0.157l-0.158,0.157v0.158H9.766v0.157l-0.157,0.454v0.455H9.451l0.158-0.612l0.157-0.611v-0.297h0.157
	v-0.367h0.158v-0.455h0.157v-0.157H10.08v-0.594H9.922v0.314l-0.157,0.157l-0.157,0.298l-0.158,0.454H9.293l0.157-0.297v-0.297
	h0.158v-0.314l0.157-0.157l-0.157-0.297L9.451,23.01v0.297H9.293v0.157l-0.157,0.298v0.296H8.979v0.157l-0.157,0.297v0.297H8.664
	v0.314H8.507v0.455H8.35v0.157L8.192,26.19v0.297H8.158v0.594H8.001v0.454H7.843v0.455H7.686v0.454H7.528v0.158l-0.332,0.594
	l0.175-0.437v-1.241h0.157v-0.612h0.158V26.47h0.157v-0.314h0.158v-0.158l0.157-0.454l0.157-0.297v-0.612h0.158V24.32H8.63v-0.122
	l0.157-0.297v-0.297h0.157v-0.455h0.157v-0.314h0.105v-0.158l0.157-0.297l0.158-0.455v-0.297h0.157v-0.455H9.363l-0.157,0.157
	l-0.158,0.158v0.314l-0.157-0.157H8.734l-0.157,0.297L8.42,22.555H8.262l0.158-0.454v-0.297l0.157-0.157v-0.157h0.157v-0.158H8.577
	v-0.157l0.157-0.157V20.72H8.577L8.42,20.878v0.296l-0.158,0.157v0.315l-0.157,0.157l-0.157,0.297v0.157H7.791v0.315L7.494,22.73
	v-0.157l0.158-0.158H7.494v-0.612l0.158-0.157l0.157-0.455v-0.157h0.157v-0.157l0.158-0.298v-0.454H8.28v-0.612l0.157-0.158
	L8.28,18.745l-0.123,0.332l-0.157,0.455l-0.158,0.158v0.314H7.686v0.157l-0.158,0.296v0.158H7.372v-0.454h0.157v-0.769H7.372v0.157
	l-0.157,0.157l-0.158,0.158v0.455l-0.157,0.157v0.157H6.742v0.158l-0.157,0.297l-0.157,0.297L6.27,21.839v0.157H6.113v0.612H5.956
	v0.314h-0.07v0.157l-0.157,0.297l-0.158,0.455v0.297H5.414v0.455H5.256v0.454H5.099v0.315H4.942v0.472l0.157-0.157h0.157v0.157
	l-0.157,0.158v0.297l-0.157-0.297H4.837L4.68,26.278v0.454H4.522v0.612H4.365v0.908h-0.14v0.454H4.068v0.455h-0.14v0.156
	l-0.157,0.158v0.611H3.614v0.752h0.157c1.136,0.664,0.104,0.157-0.157,0.157v0.157l-0.157,0.297v6.029
	c0,0.595,0.297,0.087,0.297,0.91h-0.14v-0.455h-0.14v1.52l0.297,0.752v0.612l0.157,0.157v0.454l0.157,0.157v0.298l0.158,0.157V42.2
	L4.4,42.357v0.297l0.157,0.297v0.611l0.157,0.455l0.157,0.157v0.297l0.158,0.297v0.157l0.157,0.454l0.105,0.472L5.029,45.38
	l-0.158-0.157v-0.472l-0.157-0.158v-0.296L4.557,44.14v-0.297L4.26,43.685l-0.157-0.296v-0.297l-0.158-0.752l-0.157-0.297
	l-0.175-0.314v-0.612l-0.14-0.14v-0.455l-0.157-0.297v-0.297l-0.157-0.297l0.017-0.769v-0.297l-0.157-0.157v-2.272l-0.157-0.612
	l-0.157-0.751v-0.909l-0.14-0.14v5.592l0.157,0.158v0.611l0.158,0.612v0.297l0.174,0.594h0.279V42.2l0.158,0.158v0.157l0.175,0.454
	H3.333v0.454l0.158,0.455l0.157,0.157v0.158l0.157,0.297v0.297l0.157,0.157v0.298l0.157,0.157v0.157l0.158,0.157v0.157l0.157,0.157
	v0.297l0.158,0.157v0.157l0.157,0.297l0.157,0.157v0.454l0.157,0.157l0.157,0.158v0.157l0.158,0.157v0.158l0.157,0.297l0.175,0.123
	l0.123,0.175v0.297l0.157,0.297l0.157,0.157v0.157l0.175,0.123l0.122,0.175v0.157l0.158,0.157v0.157l0.157,0.158l0.157,0.297
	l0.158,0.157l0.157,0.158l0.157,0.158v0.157l0.157,0.157v0.157l0.157,0.158l0.158,0.157l0.174,0.122l0.123,0.174v0.158l0.157,0.297
	l0.158,0.157l0.157,0.157l0.174,0.122l0.123,0.175l0.751,0.751l0.174,0.123c0.665,0.909,1.346,2.132,5.715,5.768l0.157,0.157
	l0.158,0.158l0.157,0.158l0.158,0.157l0.157,0.158l0.297,0.157l0.157,0.158l0.297,0.158h-0.035l0.157,0.157l0.157,0.157l0.158,0.157
	l0.157,0.158l0.297,0.157l0.157,0.157l0.297,0.157l0.157,0.157l0.298,0.158l0.157,0.157l0.297,0.158l0.158,0.157h0.297l0.174,0.122
	l0.122,0.175l0.157,0.157l0.158,0.157l0.297,0.157l0.157,0.158h0.157l0.157,0.156l0.297,0.158l0.455,0.157l0.297,0.157h0.455
	l0.454,0.158h2.115l0.926-0.175c0.437-0.07,1.014-0.245,1.258-0.332c0.577,0-0.018-0.297,0.385-0.088l0.296-0.157H29.2l0.157-0.157
	l0.158-0.157l0.157-0.157l0.297-0.158l0.158-0.157l0.157-0.157l0.157-0.157h0.157l0.157-0.157v-0.297l0.158-0.157l0.157-0.297
	l0.157-0.157l0.158-0.157l0.157-0.157v-0.157l0.123-0.175l0.175-0.122l0.157-0.298V61.04l0.157-0.156v-0.455l0.157-0.298v-1.66
	l-0.157-0.611h-0.157v0.297l-0.123,0.175l-0.175-0.472v-0.157l-0.157-0.157v-0.157l-0.175-0.123l-0.122-0.175v-0.156l-0.157-0.157
	v-0.158l-0.174-0.123l-0.123-0.174v-0.157l-0.157-0.158l-0.157-0.158l-1.504-1.363l-0.156-0.157l-0.158-0.158h-0.157l-0.158-0.158
	h-1.171l-0.157-0.296h-0.157l0.157,0.296l-0.472-0.14h-0.158l-0.174-0.123l-0.123-0.174h-0.156l-0.158-0.157H25.32l-0.14,0.454
	l-0.157-0.157V53.56l-0.455-0.158h-1.224l-0.157-0.157l-0.158-0.157l-0.157-0.157l-0.297-0.158h-0.157l-0.157-0.158H21.65
	l-0.175-0.122l-0.122-0.175l-0.158-0.157h-0.314v0.157l0.157,0.157l0.157,0.157h0.158l0.454,0.454h0.158l0.175,0.297l-0.333-0.14
	H21.65l-0.158-0.157h-0.052l-0.158-0.157l-0.157-0.158h-0.158l-0.157-0.158l-0.157-0.157l-0.298-0.157h-0.157l-0.157-0.157h-0.157
	l-0.157-0.158H19.57l-0.611-0.297h-0.157l-0.174-0.123l-0.419,0.123l-0.158-0.297l-0.297-0.157v-0.454h-0.471l-0.158-0.158
	l-0.157-0.157l-0.157-0.157l-0.157-0.158l-0.157-0.157l-0.158-0.157L16.18,49.68l-0.157-0.157l-0.158-0.297l-0.157-0.297
	l-0.158-0.157l-0.175-0.122l-0.122-0.175v-0.297l-0.157-0.157l-0.158-0.157v-0.298l-0.157-0.157v-0.157l-0.157-0.157h-0.157v0.297
	l-0.122,0.174l-0.332-0.471v-0.157l-0.157-0.297l-0.157-0.157v-0.297l-0.455-0.297V45.73l-0.157-0.157v-0.681l-0.157-0.298
	l-0.157-0.454c-0.262,0-0.157-0.123-0.157-0.455c0-0.576,0.053-0.052-0.158-0.454l-0.174-0.297l0.332,0.14l0.157,0.611l0.909,1.049
	v0.158l0.297,0.454v0.297l0.157,0.158l0.157,0.157l0.332,0.28l0.14-0.087l-0.175-0.175v-0.297l-0.157-0.158l-0.174-0.122
	l0.174-0.332v-0.158l-0.157-0.157l-0.157-0.158v-0.157l0.157-0.296l0.297,0.296v0.157l0.157,0.158v0.157l0.158,0.158v0.157
	l0.157,0.157l0.157,0.298l0.158,0.157l0.157,0.157l0.158,0.157l0.157,0.297l0.157,0.157l0.455,0.455v0.157l0.175,0.123l0.122,0.175
	h0.333l0.175,0.122l0.122,0.175v0.157l0.157,0.158h0.158l0.157,0.157h0.28l0.157,0.157h0.454l0.157,0.157l0.297,0.157h0.296
	l0.595,0.192l-0.297-0.489l-0.158-0.157h-0.157l-0.158-0.157l-0.157-0.157h-0.455l-0.909-1.066l-0.157-0.157l-0.158-0.158
	l-0.157-0.157l-0.157-0.297l-0.157-0.157l-0.157-0.157l-0.158-0.157c-0.419-0.28-0.559-0.28-0.611-0.909l0.909,0.751h0.157
	l0.157-0.157l0.157,0.157l0.454,0.297V45.66l-0.157-0.157v-0.157l-0.751-0.612l0.157-0.157h-0.069l-0.192-0.105l0.175-0.174V44.14
	l-0.158-0.158l-0.157-0.157l-0.157-0.157l-0.157-0.157l-0.175-0.122l-0.122-0.175v-0.157l-0.158-0.157l-0.157-0.157v-0.157
	l-0.157-0.158V42.27l-0.158-0.296l-0.157-0.158l-0.158-0.157V41.5l-0.157-0.297l-0.157-0.157V40.75l-0.158-0.298l-0.157-0.157
	v-0.157l-0.157-0.157v-0.454l-0.157-0.455L14.1,38.914v-0.157l-0.158-0.612v-1.066l-0.157-0.157v-0.297l-0.157-0.157v-1.084h0.157
	v0.611l0.157,0.297c0.28,0,0.158,0.926,0.158,1.206l0.157,0.297l0.157,0.297l0.174,0.123l0.158-0.105l-0.175-0.332v-0.455
	c-0.262,0-0.157-0.787-0.157-1.049l-0.157-0.455v-2.271L14.1,32.64v-0.577h-0.298v-0.751H13.75l0.157-0.157v-0.157H13.75v-1.049
	l0.157-0.297v-0.909h0.157v-0.595l0.157,0.158h0.157l-0.157-0.455v-0.611l0.157,0.611l0.158,0.157v-0.157l0.157-0.296
	c0-0.472-0.105-0.839,0.157-1.049V26.19h0.158l0.017-0.332l0.123,0.174h0.157l0.157-0.157v-0.157h-0.157l0.157-0.158v-0.297h0.157
	v-0.612l0.157-0.157v-0.297h0.07l0.157-0.157l0.157-0.157v0.297l0.157,0.157h0.157l0.158-0.297v-0.157h0.157v-0.455h0.157v-0.156
	l0.123-0.123h0.157v-0.157l0.157-0.297l0.158-0.297l0.157-0.157l0.157-0.157l0.157-0.297v-0.297h0.105l0.157-0.158v-0.157H18.12
	l0.157-0.296v0.157h0.157v-0.157l0.158-0.455h0.157v0.158h0.158l0.157-0.158v-0.297h-0.157v-0.297L13.89,19.375L13.89,19.375z
	 M19.482,19.375l0.158-0.297v0.157L19.482,19.375z M19.78,18.92l0.157-0.157l0.157-0.157L19.78,18.92z M20.689,18.466L20.689,18.466
	z M20.846,18.168l0.158-0.454v-0.157L20.846,18.168z M21.301,16.648h-0.158l-0.175,0.123l-0.122,0.174L21.301,16.648z
	 M20.689,16.963l0.577-1.189l0.018-0.018v-0.454l0.158-0.158l0.157-0.158h0.297v0.158l-0.157,0.297l-0.157,0.455l-0.157,0.157
	l-0.157,0.297h-0.158l-0.157,0.157l-0.122,0.175l-0.174,0.123L20.689,16.963z M24.464,15.442L24.464,15.442z M20.689,16.806
	l0.123-0.175l0.174-0.122L20.689,16.806z M26.282,14.236L26.282,14.236z M17.525,21.332h0.158v0.158l-0.158,0.157l-0.157,0.297
	h-0.297v0.297L17.525,21.332z M17.211,22.24v-0.157l0.157-0.158L17.211,22.24z M17.525,21.629h-0.157v-0.157l0.157-0.157
	l0.175-0.437l0.28-0.018l0.157,0.297L17.525,21.629z M14.345,11.667l0.157-0.157L14.345,11.667z M50.435,62.875L50.435,62.875z
	 M43.951,62.561L43.951,62.561z M40.771,63.33L40.771,63.33z M25.076,11.37l0.174-0.123l0.123-0.175h0.314v-0.157h0.158l0.157-0.157
	l0.157,0.157l-0.157,0.157l-0.454,0.158l-0.298,0.297h-0.296L25.076,11.37L25.076,11.37z M10.954,26.575l0.227-0.105l-0.157-0.297
	v-0.157h0.157v-0.612h0.157V25.09l0.157-0.157v-0.297l0.158,0.157v0.297l0.297,0.157l0.087-0.333l0.07,0.333l0.14,0.454
	l-0.489,0.717l0.227-0.262l0.28,0.156l-0.123-0.069c0.123-0.087,0.21-0.175,0.28-0.245l0.087-0.175c0.035,0,0.017,0.036-0.018,0.087
	L12.37,26.61h-0.576c-0.175,0.489,0.191,0.105-0.455,0.455l-0.297-0.157v0.472h-0.157l0.123-0.611l-0.123-0.14l0,0L10.954,26.575z
	 M24.01,17.557h0.157l0.157-0.157l0.157-0.158h0.297v-0.158h0.158l0.157-0.296V16.63l0.157,0.158h0.298l0.157-0.158h0.157
	l0.297-0.158l0.157-0.157l0.455-0.157v-0.157h0.314v-0.158H27.4v-0.157h0.157l0.157-0.157h0.157v-0.157h0.315v-0.087h0.454v-0.157
	h0.297l0.454-0.158l0.157-0.157h0.157v-0.157h0.315v-0.157h0.297l0.455-0.157h0.157l0.157-0.157v-0.157h0.594v-0.158h0.455
	l0.611-0.157l0.298-0.157v0.157h0.157l0.612-0.157v-0.157h0.611l0.157-0.157h2.43v-0.053l0.909,0.157
	c0.472,0,1.154-0.104,1.364,0.157h0.751l0.455,0.157h0.612l0.297,0.158h0.297l0.454,0.157h0.158l0.297,0.157h0.157l0.157,0.157
	h0.297l0.157,0.157l0.297,0.158l0.455,0.157l0.297,0.157l0.297,0.157h0.751l0.157,0.297l0.157,0.157l0.157,0.157h0.157l0.751,0.612
	h0.297l0.489,0.419l0.42-0.104l0.594,0.751h0.157l0.455,0.455v0.157l0.157,0.157l0.157,0.157l0.175,0.123l0.122,0.175h0.157
	l0.175,0.123l0.123,0.174v0.158l0.157,0.157l0.157,0.157l0.612,0.612v0.158l0.157,0.157v0.158l0.157,0.157l0.455,0.454v0.157
	l0.174,0.122l0.123,0.175v0.157l0.157,0.157l0.158,0.157v0.454l0.297,0.455v0.157l0.157,0.157l0.157,0.297l0.157,0.157v0.157
	l0.158,0.158v0.157l0.157,0.158v0.157l0.157,0.297v0.296l0.158,0.158v0.297l0.157,0.157v0.157l0.158,0.157v0.455l0.157,0.297
	l0.157,0.297l0.158,0.158v0.455l0.157,0.454l0.157,0.297v0.454l0.157,0.297l0.157,0.157v0.611l0.158,0.158v0.157l0.157,0.612v0.751
	l0.158,0.612v0.909l0.157,0.909v3.041h-0.157l-0.158,0.157V36.45h-0.157c0,0.472,0.104,0.839-0.158,1.049
	c0,0.471,0.104,0.996-0.157,1.206v0.298h0.157l0.158-0.158l0.157-0.751v-0.455h0.158v1.206h-0.158v0.751h-0.157v0.315h-0.158v0.157
	h0.158v0.611h-0.158v0.158l-0.157,0.454v0.297h-0.472v0.595h-0.158v0.157c0,0.315,0.052,0.56,0,0.752v-0.14h-0.157l-0.157,0.296
	v0.158l-0.158,0.297v0.454h-0.157v0.158l-0.158,0.157v0.297h-0.104v0.314h-0.158v0.315h-0.157v0.157l-0.157,0.297v-0.507h-0.157
	v0.157h0.157L53.144,45.8v-0.158h-0.297V45.8h0.297v0.157h-0.157v0.157l-0.158,0.158l-0.157,0.157v0.297H52.55l-0.157,0.157v0.455
	h-0.157l-0.157,0.157v0.157L51.92,47.81v0.157h-0.157v0.315h-0.157l-0.157,0.157l-0.157,0.157v0.314h-0.158l-0.156,0.157v0.157
	l-0.158,0.157l-0.157,0.157l-0.157,0.158l-0.157,0.157l-0.157,0.157l-0.157,0.157l-0.158,0.158v0.297h-0.157l-0.157,0.158
	l-0.157,0.157l-0.157,0.158l-0.158,0.157v0.157l-0.157,0.157l-0.158,0.158l-0.157,0.157L48.46,52.04l-0.157,0.157V52.04h-0.333
	l0.175-0.297l0.454-0.157l0.158-0.297l-0.14-0.297l0.297-0.157v-0.158l0.157-0.158v0.298h0.157l0.157-0.157l0.158-0.158l0.158-0.297
	l0.157-0.157l0.157-0.297v-0.157h0.157l0.158-0.297v-0.157h0.157v-0.157l0.157-0.157l0.157-0.158l0.157-0.157l0.157-0.296v-0.158
	h0.157v-0.437h0.158l0.157-0.157l0.157-0.158v-0.157l0.157-0.297l0.157-0.297l0.157-0.157l0.158-0.157l0.157-0.455l0.158-0.454
	l0.157-0.158v-0.297h0.157v-0.157l0.157-0.297l0.157-0.157v-0.455h0.158V43.65l0.157-0.297v-0.158h0.297v-0.122h-0.297v-0.157h0.157
	l0.297-0.158v-0.297h-0.157l-0.297,0.157v-0.157h0.157l0.157-0.454l0.157-0.455l0.158-0.611v-0.455l0.157-0.157h-0.157l0.157-0.455
	l0.157-0.751v-0.298h0.158v-0.279h0.157V38.39h-0.157l-0.158-0.612h0.158v-0.157l0.157-0.752v-0.297l-0.157-0.157l0.157-0.297
	v-0.734c-0.053-0.07-0.612-1.049-0.157-1.049v-0.611l-0.158-0.158v-0.612l-0.157-0.157l0.157-0.157v-0.297l-0.157-0.157
	l-0.175-0.297h0.472v-0.612l-0.157-0.157h-0.158l-0.157,0.157v-0.611l-0.157-0.157v-0.612l-0.157-0.611l-0.157-0.542l-0.158-0.158
	v-0.454l-0.157-0.297v-0.314l-0.157-0.455l-0.157-0.455l-0.157-0.157l-0.158-0.612l-0.157-0.157l-0.157-0.157v-0.297h-0.158v-0.455
	L52.2,24.478l-0.157-0.157v-0.297h-0.314v0.297l0.157,0.297l0.157,0.297l0.157,0.158v0.157h0.157v0.611l0.158,0.157v0.297
	l0.157,0.297l0.157,0.454l0.158,0.298l0.157,0.611l0.157,0.454l0.157,0.455l0.157,0.157v0.612l0.158,0.908l0.157,0.909l0.157,0.751
	l0.157,0.298v1.817c0.245,0,0.228,2.832,0,3.024c0,0.472,0.105,1.153-0.157,1.363c0,0.472,0.105,0.839-0.157,1.049v0.909h-0.157
	v0.455h-0.158v0.157l-0.157,0.752v0.612h-0.297v0.158h0.157v0.157h-0.157v0.454h-0.157v0.157l-0.157,0.297l-0.157,0.296v0.158h-0.14
	v0.157l-0.157,0.297v0.297h-0.157v0.314h-0.157l-0.158,0.158v0.297l-0.157,0.157v0.157h-0.157l-0.158,0.157v0.314h-0.157v0.315
	h-0.158v0.314h-0.156v0.157l-0.157,0.157l-0.158,0.158l-0.157,0.297l-0.157,0.157l-0.157,0.297l-0.157,0.157l-0.157,0.297v0.157
	h-0.158l-0.157,0.157L49.404,49.4l-0.157,0.297l-0.157,0.157l-0.157,0.157v0.157h-0.158v0.158l-0.157,0.157l-0.157,0.157
	l-0.157,0.157v0.157h-0.123v0.157l0.297-0.157h0.157l-0.123,0.175l-0.175,0.123l-0.157,0.157l-0.157,0.157l-0.157,0.158
	l-0.158,0.157l-0.297,0.157l-0.157,0.157l-0.157,0.157L46.8,52.512l-0.157,0.157l-0.158,0.157l-0.297,0.157v0.455l-0.157,0.297
	v0.158h0.297l0.157-0.158l0.158-0.157H46.8v0.297h-0.298l-0.157,0.297h-0.296l-0.158,0.158l-0.157,0.157h-0.314v0.297l-0.594,0.472
	h0.454l0.157-0.157l0.297-0.157l0.157-0.158v-0.157h0.158l0.157-0.157h0.157l-0.123,0.175l-0.175,0.123l-0.157,0.157v0.157h-0.297
	v0.157h-0.158l-0.157,0.158v0.157h-0.314l-0.158,0.157v0.157h-0.158l-0.157,0.157l-0.157,0.157l-0.157,0.157h-0.158l-0.157,0.157
	v0.157h-0.314v0.157H43.41l-0.158,0.157h-0.157v0.158h-0.158l-0.157,0.157h-0.157v0.157h-0.035l-0.157,0.157h-0.157l-0.297,0.158
	l-0.297,0.157l-0.157,0.158v0.157h-0.297l-0.158,0.157h-0.157l-0.297,0.158l-0.297,0.157l0.751,0.157v-0.157h0.315v-0.157h0.314
	v-0.158h0.157l0.158-0.157v0.157l-0.158,0.158l-0.157,0.157L41.4,58.855l0.454,0.157l0.297-0.157l0.158-0.157v-0.297h0.297
	l0.296-0.157l0.158-0.158l0.297-0.157v-0.158L43.2,57.615h0.297l0.157-0.157l0.297-0.157v0.157h0.297L43.951,57.3l0.158-0.157
	l0.296,0.157v-0.157h0.315v-0.158h0.314v-0.454h0.455l0.751-0.455l0.158-0.157l0.157-0.157l0.296-0.157l-0.157,0.157l-0.157,0.157
	l-0.157,0.157l-0.158,0.158l-0.158,0.157h-0.157l-0.751,0.612H45l-0.158,0.157h-0.157v0.157h-0.157l-0.157,0.157h-0.157v0.158
	h-0.315v0.157h-0.157l-0.157,0.157h-0.158l-0.157,0.157l-0.158,0.157l-0.157,0.158v0.157h-0.612l-0.157,0.157v0.455h-0.297
	l-0.157,0.157h-0.157l-0.157,0.157L41.12,59.66v0.158h0.454l0.297-0.158v-0.157h0.297l0.157-0.157l0.157-0.157h0.157l0.158-0.157
	h0.157l0.297,0.157l0.018-0.333l0.122,0.175h0.157l0.158-0.158l0.297-0.157v-0.158h-0.157l0.297-0.157l0.157-0.157h0.157v-0.158
	l0.157-0.157h0.612l0.297-0.158l0.123-0.175l0.175-0.122l0.157-0.157l0.157-0.157v-0.157h0.315v-0.157h0.297l0.157-0.158
	l0.297-0.157l0.158-0.158l0.611-0.297l0.455-0.297l0.158-0.157h0.157l-0.157,0.157l-0.455,0.297l-0.455,0.297h-0.157l-0.158,0.158
	v0.157h-0.228l-0.157,0.158l-0.157,0.157l-0.297,0.157l-0.157,0.157v0.157h-0.314v0.158h-0.14l-0.157,0.297l-0.297,0.157
	l-0.157,0.158H45.14l-0.157,0.157l-0.158,0.157v0.158h-0.455l-0.157,0.157v0.158h-0.297l-0.157,0.157l-0.298,0.157l-0.157,0.157
	l-0.297,0.157l-0.158,0.158h-0.157v0.156h-0.402l-0.157,0.157v0.298h0.297v-0.158h0.157l0.455-0.157H43.2l0.455,0.157v-0.157h0.297
	l0.454-0.158l0.158-0.157h0.157v-0.157h0.455l0.454-0.158h0.157v-0.157h0.315V59.17h0.157l0.157-0.157h0.157v-0.157h0.315v-0.157
	h0.297l0.297-0.157l0.298-0.158l0.157-0.157l0.157-0.157l0.156-0.158l0.158-0.157l0.158-0.158h0.157V57.44h0.157l0.157-0.157
	l0.158-0.157h0.314l-0.157,0.157l-0.297,0.157l-0.157,0.157l-0.157,0.158h-0.157l-0.158,0.157v0.158h-0.245l-0.157,0.157
	l-0.157,0.157l-0.158,0.158h-0.158v0.157h-0.297l-0.157,0.157h-0.158l-0.157,0.157l-0.157,0.157l-0.297,0.158v0.157h-0.157
	l-0.157,0.158h-0.105v0.157h-0.157l-0.297,0.157l-0.157,0.158H45.14l-0.297,0.157l-0.157,0.158v0.157h-0.314l-0.157,0.157V60.9
	h-0.454v0.157h-0.314l-0.158,0.157v0.158h-0.314l-0.157,0.157v0.157l-0.157,0.157h-0.07l-0.297,0.157l-0.297,0.157l-0.157,0.157
	v0.158l0.297,0.157h-0.314v0.157h-0.28v0.157h-0.297l-0.157,0.157h-0.297l-0.455,0.158h-0.455l-0.157,0.157v0.157l0.296,0.158h0.612
	v-0.158h0.314v-0.401H41.4v-0.158h0.454v-0.157h0.315v-0.139h0.314l0.752-0.157v-0.158h0.156l0.157-0.157h0.158v-0.158h0.297
	l0.157-0.157v0.297h-0.314l-0.158,0.157l-0.297,0.157L43.095,62.7l-0.297,0.157l-0.158,0.157v0.158h0.297l0.454-0.158l0.157-0.157
	l0.298-0.157v-0.157h0.454l0.297-0.157v-0.157h0.298l0.296-0.157l0.455-0.158h0.157v-0.157h0.314V61.6h0.314l0.157-0.158v-0.157
	h0.298l0.157-0.157l0.157-0.158h0.158V60.9h0.454l0.157-0.157v-0.157h0.315v-0.157h0.297l0.296-0.158l0.157-0.157l0.158-0.158
	l0.158-0.157v0.297l-0.297,0.157l-0.157,0.157v0.157h-0.314v0.157h-0.402v0.157h-0.157l-0.157,0.157l-0.298,0.157l-0.157,0.157
	h-0.157v0.158h-0.28v0.156h-0.157l-0.158,0.158h-0.158v0.157h-0.314v0.157h-0.28v0.158h-0.314v0.157h-0.158l-0.157,0.157h-0.157
	v0.158H44.86l-0.157,0.157h-0.157l-0.455,0.157l-0.28,0.088l-0.296,0.157l-0.297,0.157l0.612,0.157l0.157-0.157l0.454-0.157
	l0.455-0.157v-0.158h0.296l0.158-0.157h0.157V62.7h0.314v-0.157h0.314v-0.157h0.297l0.298-0.157l0.157-0.157h0.157v-0.157h0.455
	l0.157-0.158V61.6h0.157l0.157-0.158h0.158v-0.157h0.157l0.157-0.157H48.6V60.97h0.158l0.297-0.157h0.157l0.157-0.158v-0.157h0.158
	l0.157-0.157h0.297v-0.157h0.157l0.157-0.157l0.157-0.158l0.298-0.157l0.157-0.157l0.297-0.157l0.158-0.157l0.157-0.158l0.157-0.157
	l0.157-0.157l0.158-0.157l0.158-0.158h0.157l-0.157,0.455l0.332,0.018l-0.175,0.123v0.157h0.297v-0.455h0.297v-0.157h0.157
	l0.158-0.157h0.157v-0.297h0.297v-0.157h0.158v-0.297h0.157l0.157-0.157l0.454-0.157l0.158-0.157l0.157-0.158v-0.158l0.157-0.157
	h0.158l0.157-0.157l0.158-0.157l0.157-0.158h0.297l-0.157,0.158h-0.157l-0.157,0.157v0.157l-0.297,0.157h-0.402v0.158l-0.157,0.158
	l-0.158,0.157l-0.157,0.157l-0.158,0.157l-0.157,0.157L53.878,58l-0.157,0.156l-0.157,0.157l-0.158,0.157l-0.157,0.158h-0.157
	l-0.157,0.156l-0.158,0.158L52.62,59.1v0.157h-0.157l-0.157,0.158l-0.157,0.157h-0.158v0.158h-0.158v-0.314h-0.157v-0.297h-0.175
	l-0.157,0.157l-0.157,0.157L51.03,59.59v0.157l0.454-0.157v0.157l-0.157,0.158h0.297v-0.053h0.314l-0.157,0.157l-0.157,0.158v0.157
	h-0.123v0.297h0.157l0.158-0.158v-0.157h0.157l0.157-0.157l0.297-0.157l0.158-0.157l0.157-0.157h0.157l0.298-0.455h0.157
	l-0.298,0.455l-0.296,0.157l-0.158,0.157l-0.157,0.157l-0.157,0.157l-0.297,0.157l-0.158,0.158l-0.157,0.157h-0.175v0.157h-0.157
	l-0.157,0.157v0.157H51.03l-0.158,0.157l-0.612,0.158v0.157l0.157,0.157h-0.454v0.297h-0.298l-0.297,0.157l-0.157,0.157v0.157
	h-0.157l-0.157,0.157H48.74l-0.297,0.157l-0.612,0.158l-0.157,0.157l-0.157,0.157l-0.158,0.157l-0.158,0.157v0.158h-0.227v0.157
	H46.66v0.158h-0.158l-0.296,0.157h-0.157v0.157h-0.315v0.158h-0.297l-0.157,0.157h-0.157l-0.297,0.158v0.157h-0.158l-0.297,0.157
	h-0.157l-0.297,0.157l-0.455,0.157l0.612,0.158l0.157-0.158h0.611l0.297-0.157h0.297v-0.157h0.158l0.297-0.157l0.297-0.157
	l0.297-0.158h0.158v-0.157h0.314v-0.158h0.314v-0.314h0.297l0.298-0.158l0.157-0.157l0.297-0.158l0.158-0.157h0.751l0.157-0.157
	l0.158-0.297l0.158-0.157v-0.157h0.157l0.157-0.158h0.157l-0.157,0.297l0.298-0.157h0.157l0.157-0.157h0.157l0.158-0.157h0.315
	L51.1,62.648l-0.158,0.157h-0.158l-0.157,0.157h-0.175l-0.157,0.158h-0.157l-0.157,0.157l-0.158,0.157h-0.296l-0.158,0.157v0.157
	h-0.297l-0.157,0.158h-0.158v0.157H48.6l-0.419,0.158l-0.297,0.157l-0.297,0.157H47.43l-0.158,0.158v0.157h-0.297l-0.297,0.158
	h-0.157v0.157h-0.157l-0.298,0.157h-0.454v0.157H45l-0.297,0.157h-0.157v0.158h-0.315v0.157h-0.42v0.158h-0.454v0.157H43.06
	l-0.611,0.157l-0.612,0.158h-0.157v0.157h-0.437v0.297h0.751v-0.157h0.612V66.72h0.751l0.611-0.157l0.612-0.157l0.297-0.158v0.158
	h0.157v-0.158h0.298l0.454-0.157h0.158l0.157-0.158v-0.157h0.455l0.157-0.157h0.157v-0.174h0.611v-0.158h0.157V65.13h0.752
	l0.157-0.297l0.297-0.157h0.157v-0.157h0.297l0.455-0.158l0.611-0.156h0.298l0.157-0.157l0.157-0.158l0.156-0.297v-0.157h0.315
	v-0.157h0.454l0.158-0.157h0.296l0.158-0.611l0.454-0.158v-0.332l0.297,0.175h0.157l0.157-0.157v-0.158h0.297l0.157-0.157
	l0.157-0.158l0.158-0.157h0.157V61.25h0.158l0.157-0.157h0.157l0.157-0.157V60.9h-0.314l0.157-0.297h0.157v-0.157h0.157l0.297,0.157
	h0.158l0.157-0.157l0.158-0.157l0.157-0.158l0.018-0.332l0.122,0.174h0.157l0.157-0.454l0.454-0.157l0.158-0.297l0.157-0.157
	l0.157-0.157l0.158-0.157l0.297-0.157l0.157-0.157v-0.297l-0.333,0.174l-0.122-0.157l0.297-0.157l0.157-0.157l0.157-0.157
	l0.157-0.157l0.158-0.157l0.157-0.157l0.157-0.158v-0.157l0.158-0.157h0.157l0.158-0.158l0.156-0.157l0.157-0.158l0.158-0.157
	l0.157-0.297l0.157-0.158v-0.157l0.157-0.157h0.157v-0.455h0.158l0.157-0.157v-0.157l0.157-0.157h0.157l0.157-0.158l0.158-0.157
	l0.157-0.157v-0.314h0.158l0.157-0.454l0.157-0.157v-0.158l0.157-0.157l0.157-0.296l0.158-0.158v-0.105h0.157v-0.314h0.157v-0.612
	h0.297v-1.083h0.297l0.157-0.157v-0.158l0.157-0.157l0.157-0.156l0.157-0.455l0.158-0.454l0.157-0.455l0.157-0.297v-0.297h0.157
	v-0.454h0.157l0.158-0.158l0.157-0.611l0.158-0.611v-0.455h-0.298v-0.158h0.158v-0.909h0.157v-0.751h0.157v-0.297l0.157-0.297
	v-0.455h0.157V41.78h0.158v-0.297l0.157-0.297v-0.455h0.157v-0.909h0.157v-0.158h-0.524v-0.156h0.157v-0.455l0.157-0.611v-1.206
	h0.157v-0.297h-0.157V34.37l-0.157-0.297l-0.157-0.157h0.157v-0.157h-0.157V31.8c-0.28,0-0.158-0.926-0.158-1.206l-0.157-0.909
	v-0.157h-0.157v-0.595h-0.157v-0.909h-0.157v-0.751h-0.158V26.82l-0.157-0.751l-0.157-0.158v-0.454h-0.158V25.16l-0.157-0.297
	v-0.157h-0.157V24.25l-0.157-0.297v-0.297h-0.157v-0.297l-0.158-0.297l-0.157-0.158v-0.157l-0.157-0.297v-0.298l-0.157-0.157
	l-0.157-0.157v-0.158l-0.158-0.157v-0.157l-0.157-0.157v-0.157l-0.157-0.158v-0.454l-0.158-0.158l-0.157-0.297l-0.297-0.157v-0.454
	l-0.157-0.297l-0.157-0.157l-0.158-0.157v-0.157l-0.157-0.158v-0.157l-0.157-0.157v-0.157l-0.455-0.455v-0.297l-0.157-0.157
	l-0.157-0.158l-0.157-0.157l-0.157-0.157v-0.157l-0.157-0.157v-0.158l-0.157-0.157l-0.175-0.122l-0.123-0.174v-0.158l-0.175-0.122
	l-0.123-0.175v0.07l-0.157-0.158l-0.158-0.157v-0.157l-0.157-0.157l-0.157-0.157l-0.158-0.157l-0.157-0.157l-0.157-0.157
	l-0.157-0.158l-0.157-0.157l-0.158-0.157c-0.472-0.314-1.153-0.787-1.206-1.503l-0.437,0.175l-0.158-0.333l-0.157-0.156
	l-0.157-0.157h-0.611l-0.298-0.158l-0.157-0.157l-0.157-0.157l-0.297-0.157l-0.157-0.297h-0.157v0.262l0.157,0.157h0.157v0.158
	h0.297l0.157,0.157l0.157,0.157v0.297l0.524,0.559l-0.139,0.122l-0.735-0.629l-0.244,0.105l-0.157-0.157l-0.455-0.158l-0.157-0.297
	h-0.298l-0.751-0.297l-0.157-0.158h-0.158l-0.158-0.157l-0.157-0.157h-0.297l-0.175-0.123l-0.122-0.174l-0.157-0.157h-0.157
	l-0.158-0.157h-0.296L50.156,9.85l-0.157-0.157h-0.157l-0.157-0.158h-0.455l-0.472-0.07L48.6,9.5l0.333,0.333l0.157,0.157h0.454
	l0.158,0.297l0.157,0.158l0.157,0.157h0.455l0.157,0.157l0.157,0.157h0.158l0.174,0.123l0.123,0.174l0.157,0.157l0.297,0.158
	l0.157,0.157l0.297,0.158l0.157,0.157v0.297h0.297l0.454,0.454h0.158l0.454,0.455l0.158,0.157v0.297l0.297,0.297l0.157,0.158
	l0.455,0.454l0.157,0.297l0.158,0.158l0.157,0.157l0.158,0.157l0.157,0.157l0.157,0.297c0.472,0.315,0.611,0.419,0.751,1.049v0.157
	l0.158,0.157l0.454,0.612v0.157l0.158,0.157l0.157,0.297l0.157,0.157v0.158l0.157,0.156l0.157,0.297l0.158,0.158v0.157l0.157,0.157
	v0.157l0.174,0.437l-0.332-0.437l-0.158-0.297l-0.157-0.297l-0.157-0.297l-0.157-0.157V18.57l-0.297-0.454l-0.158-0.158
	l-0.156-0.157v-0.244h-0.157l-0.158,0.157l-0.157-0.157v-0.158l-0.909-0.909v-0.157l-0.158-0.158l-0.157-0.157l-0.158-0.158
	l-0.157-0.157l-0.157-0.157L54.42,15.39l-0.157-0.157l-0.158-0.158l-0.157-0.157l-0.157-0.157l-0.157-0.157l-0.157-0.157
	l-0.158-0.157l-0.157-0.157h-0.297l-0.158-0.297H52.55l-0.751-0.611l-0.158-0.157l-0.158-0.158h-0.157l-0.455-0.454h-0.455
	l-0.296-0.455h-0.157l-0.612-0.455h-0.297l-0.612-0.612l-0.157-0.157l-0.455-0.157h-0.157l-0.455-0.297h-0.157l-0.157-0.157
	l-0.157-0.157L46.451,9.85h-0.298l-0.157-0.157l-0.296-0.158h-0.297L44.79,9.237h-0.157L44.476,9.08l-0.297-0.157h-0.157
	l-0.157-0.157h-0.752L42.5,8.311h-0.612l-0.157-0.157h-0.489l-0.611-0.297h-0.157l-0.158-0.158h-0.612V7.542l-0.437,0.053h-0.909
	V7.438h-0.751V7.28H37.45v0.157h-0.611V7.28h-3.321v0.157h-1.521v0.157h-0.751l-0.297,0.157h-0.297v0.157h-0.455l-0.297,0.157v0.472
	h-0.314v0.105H29.13L28.973,8.8h-0.156v0.297l0.156-0.157l0.472,0.069l-0.332,0.088l-0.157,0.158h-0.455v0.157h-0.314L27.89,9.57
	v0.157h-0.455l-0.297,0.157v0.158h-0.559v0.156h-0.157l-0.298,0.158l-0.157,0.157H25.81v-0.157h-0.157l-0.157,0.157v0.157h-0.297
	l-0.158,0.157h-0.157v0.087h-0.297l-0.455,0.157h-0.157v0.158H23.52l-0.157,0.157v0.157h-0.454v0.158h-0.315v0.157H22.28v0.104
	h-0.315v0.157H21.65l-0.157,0.158v0.157h-0.21v0.157h-0.157l-0.157,0.158v-0.158h-0.297l-0.157,0.298h-0.123l-0.611,0.454v0.157
	h-0.158v-0.297l0.28-0.018l0.332-0.437h-0.297l-0.157,0.157l-0.158,0.158v0.157h-0.157l-0.157,0.157l0.297,0.158l-0.158,0.157
	l-0.157,0.157l-0.157,0.157h-0.157l-0.472,0.472l-0.227-0.244l-0.157,0.157l-0.297,0.157v0.297l0.455-0.14l-0.157,0.14l-0.157,0.157
	h-0.158l-0.297-0.157v0.157h-0.437l-0.157,0.455l-0.158,0.157l-0.157,0.157l-0.157,0.158l-0.157,0.157l-0.157,0.157v0.262H15.97
	l-0.122,0.14l-0.157,0.158v0.157l-0.157,0.158l-0.157,0.157l-0.158,0.157V16.98h-0.157l-0.157,0.157v0.297h0.297l-0.105,0.123v0.157
	h-0.157v0.157l-0.14,0.14v0.158h-0.157v0.314h-0.455v0.157H14.03l-0.158,0.455v0.297h0.315l0.157-0.297v-0.157h0.157l0.157-0.157
	l0.122-0.175l0.175-0.123v-0.157l0.157-0.157v-0.297h0.157l0.158-0.157l0.157-0.157l0.157-0.158l0.157-0.157h0.157l0.157-0.297
	l0.157-0.157l0.157-0.157v0.157l-0.157,0.157v0.157l-0.157,0.297l-0.21,0.158v0.157h-0.157l-0.157,0.157h-0.157l-0.297,0.455
	l-0.157,0.157l-0.28,0.28l-0.157,0.157v0.297h-0.158l-0.157,0.157v0.157H14.17v0.297h-0.157v0.314h-0.157l-0.157,0.158l-0.157,0.157
	v0.612h-0.158l-0.157,0.297v0.297h-0.297v0.297l-0.158,0.157v0.455h-0.157l-0.157,0.296v0.297H12.3v0.158l-0.157,0.157l-0.158,0.157
	l-0.157,0.297v0.455l0.14,0.07l0.472-0.07c-0.105,0.192-0.157,0.157-0.157,0.454c0,0.629,0.017,0.315-0.158,0.455v0.297l0.245-0.035
	l0.682-1.013l-0.157,0.559l0.751,0.192v-0.455h0.298l0.017-1.083l0.438,0.174v-0.297H14.1v-0.297l0.157-0.157L14.1,23.341h-0.157
	v0.158h-0.158l0.158-0.297l0.157-0.297l0.157-0.157V22.59l0.157-0.157l0.157-0.157v-0.158l0.158-0.157l0.157-0.297l0.174-0.472
	l0.123,0.175l0.157,0.297h0.157l0.157-0.157l0.298-0.455l0.157-0.297h0.157l-0.157,0.297l0.629-0.629l0.123,0.175l-0.175,0.017
	l0.157,0.07l0.472-0.244l-0.209-0.473l-0.104,0.35l-0.123-0.175h-0.157v-0.157l0.157-0.454v-0.157l0.158-0.157l0.157-0.158
	l0.158-0.157l0.157-0.297l0.157-0.158l0.158-0.157l0.157-0.157l0.157-0.157l0.157-0.157l0.157-0.297l0.158-0.157l0.157-0.157
	l0.157-0.158l0.158-0.157l0.157-0.157l0.158-0.157l0.157-0.157l0.157-0.158l0.158-0.157l0.157-0.158l0.157-0.157l0.157-0.157
	l0.157-0.158l0.158-0.157l0.157-0.158l0.157-0.157l0.157-0.297l0.157-0.157l0.158-0.157l0.157-0.157l0.158-0.158l0.157-0.157
	l0.157-0.157l0.157-0.158h0.157l0.158-0.157l0.297-0.158v-0.157h0.157l0.158-0.157h0.157V12.82h0.314v-0.157h0.315v-0.157h0.297
	l0.157-0.157h0.157l0.158-0.157v-0.158h0.454v-0.157h0.314v-0.07h0.455v-0.157h0.314l0.297-0.157l0.157-0.158v-0.157h0.314V11.02
	h0.297l0.158-0.157h0.157v-0.157h0.314l0.751-0.297h0.314l0.455-0.157v-0.157h0.297l0.158-0.158v0.315h-0.611l-0.298,0.157h-0.157
	l-0.454,0.297v0.525l0.157-0.158h0.297l-0.157,0.158l-0.123,0.122l0.123,0.175h0.157V11.37h0.315v-0.157h0.297l0.297-0.157h0.158
	v-0.14h0.297l0.157,0.157h-0.297l-0.157,0.158h-0.158v0.157h-0.297l-0.297,0.157h-0.158v0.158h-0.751v0.157h-0.455v0.104h-0.297
	l-0.157,0.157H27.19l-0.157,0.297l-0.611,0.157l-0.158,0.158l-0.157,0.157l-0.297,0.157l-0.157,0.157l-0.297,0.157l-0.157,0.157
	l-0.158,0.157l-0.157,0.157v0.157h0.297l0.297-0.157l0.298-0.157v-0.297h0.297l0.297-0.157v-0.332l0.297,0.175h0.297l0.297-0.158
	V12.75h0.454l0.455-0.158l0.157-0.157l0.157-0.157h0.297l0.157-0.158v0.297h-0.297v0.157l0.157,0.158h-0.157l-0.157,0.157v0.157
	l0.157,0.157l-0.297-0.157h-0.157l-0.157,0.157v0.157h-0.157l-0.158,0.157l-0.157,0.157l-0.297,0.157v0.297h0.157l0.297-0.157
	l0.158-0.158l0.297-0.157l0.157-0.157h0.157l0.157-0.157h0.892v-0.157l0.157,0.157h0.157v-0.157h0.454V13.03l0.157-0.157
	l0.455,0.157l0.157-0.157v-0.157h0.454v-0.158h0.769l0.297-0.157v-0.157h0.298l0.472,0.018l-0.175,0.122v0.158h-0.454v0.157h-0.612
	l-0.297,0.157v-0.157h-0.157l-0.455,0.157v0.297h-0.297l-0.158,0.157h-0.314v0.157h-0.455v0.158h-0.314l-0.157,0.157v0.158
	l-0.612,0.157h-0.157l-0.157,0.157v0.158l-0.297,0.157l-0.157,0.157h-0.052v0.158h-0.314v0.157H27.47l-0.158,0.157h-0.279v0.087
	l-0.297,0.157l-0.298,0.157h-0.157l-0.157,0.157v0.157H25.81v0.158h-0.296l-0.158,0.157l-0.175,0.175l-0.123-0.157l0.297-0.157
	l0.297-0.157l0.157-0.158v-0.157h-0.296l-0.298,0.157l-0.157,0.158l-0.297,0.157v0.157h-0.157l-0.157,0.157H24.29l-0.158,0.157
	l-0.157,0.157v0.157h-0.262l-0.157,0.157h-0.157v0.157h-0.157l-0.297,0.157l-0.157,0.158l-0.157,0.156h-0.158v0.158h-0.157
	l-0.158,0.157L22,18.133l-0.157,0.157h-0.158v0.157l-0.297,0.158l-0.157,0.157l-0.157,0.157l-0.157,0.157l-0.158,0.157l-0.157,0.158
	l-0.157,0.157l-0.158,0.157l-0.157,0.158l-0.158,0.157l-0.157,0.158l-0.157,0.297H19.5v0.157l-0.157,0.158v0.157h-0.157
	l-0.157,0.158v0.157l-0.157,0.157l-0.158,0.158v0.156h-0.157v0.157L18.4,22.049l-0.158,0.157l-0.157,0.297l-0.157,0.157
	l-0.157,0.297l-0.157,0.157l-0.158,0.158l-0.157,0.296l-0.157,0.297v0.157h-0.157v0.157l0.087,0.018l-0.157,0.297l-0.158,0.297
	v0.297h-0.157v0.157l-0.157,0.612l-0.157,0.157l-0.157,0.455l-0.158,0.297v1.363h-0.122v0.612l-0.157,0.157l-0.157,0.297v-0.769
	h-0.157l-0.158,0.612v0.297l0.158,0.612h0.297v-0.297h0.174v-0.158l0.157-0.297l0.158-0.297v-0.455l0.157-0.297l0.158-0.612v-0.297
	h0.157l0.157-0.157l0.157-0.158v-0.157l0.123-0.297l0.157-0.297v-0.769h0.297l0.157-0.297l0.157-0.455l0.157-0.157v-0.157
	l-0.157-0.297l0.157-0.297v0.297h0.123l0.157-0.157l0.157-0.158v-0.454l-0.157-0.158l0.297-0.157l0.157-0.157v-0.297l0.157-0.157
	l0.158-0.297v-0.297l0.157,0.157h0.157v0.157h0.158v-0.157h0.157v-0.157l0.157-0.157l0.157-0.297l0.157-0.157l0.158-0.157v-0.297
	h0.297l0.157-0.157l0.158-0.297l0.157-0.157l0.157-0.157l0.157-0.157l0.157-0.157l0.298-0.157H22v-0.157l0.157-0.157l0.158-0.157
	l0.157-0.157l0.158-0.158l0.157-0.157l0.297-0.157h0.158v-0.157l0.157-0.157l0.157-0.158v-0.314l0.157-0.298v0.455h0.297
	l0.157-0.157H24.01L24.01,17.557z M18.12,23.447v-0.297h0.157l-0.018,0.472L18.12,23.447z M23.87,17.259l0.157-0.157l0.175-0.139
	l-0.175,0.296l-0.157,0.158V17.259z M16.302,20.58l0.157-0.157v-0.157h0.157v-0.157h0.157l-0.157,0.297l-0.157,0.158l-0.157,0.157
	V20.58z M16.459,19.968l-0.157,0.158v-0.158l0.157-0.157V19.968z M24.918,11.667V11.51l-0.455,0.157v0.157L24.918,11.667z
	 M26.282,10.618h0.157l0.157,0.157h-0.296v-0.157H26.282L26.282,10.618z M17.822,14.987l-0.157,0.158l-0.14,0.14l-0.157,0.157
	l0.157-0.297v-0.158H17.822z M17.368,15.442v0.157l-0.333,0.333l-0.104-0.158L17.368,15.442z M17.211,19.671h-0.14l-0.158,0.297
	l0.262-0.087l0.489,0.245v-0.28L17.211,19.671z M16.005,21.332l0.157-0.157h-0.157V21.332l-0.157,0.158L16.005,21.332z
	 M15.096,21.787l-0.158,0.157L15.096,21.787z M13.75,23.744v0.157l0.175-0.297L13.75,23.744z M3.246,30.07l-0.104,0.314L3.246,30.07
	z M6.498,50.327H6.34v-0.158L6.498,50.327z M6.183,50.03l-0.157-0.157v-0.158L6.2,49.837l0.123,0.174L6.183,50.03z M18.277,48.37
	H18.12v-0.157L18.277,48.37z M19.482,48.212l-0.157-0.158h0.157V48.212z M17.822,48.212h-0.157v-0.158L17.822,48.212z
	 M16.005,47.757l-0.157-0.14l-0.297-0.157l-0.157-0.158l-0.157-0.297l-0.158-0.157l-0.157-0.297l-0.157-0.157l-0.157-0.157
	L14.45,46.08v-0.157l0.332,0.28l0.14-0.087l-0.175-0.175h0.157l0.157,0.157l0.157,0.297h0.157v0.157l0.158,0.157l0.157,0.297
	l0.158,0.158l0.157,0.157l0.157,0.157l0.157,0.158v0.297h-0.314V47.757z M15.253,47.915l-0.157-0.157h0.157V47.915z M19.64,47.757
	h0.297v-0.14l-0.157-0.157h-0.158v-0.297l-0.297-0.158l-0.157-0.157l-0.158-0.157l-0.157-0.157l-0.157-0.157l-0.297,0.157
	l0.158,0.157l0.157,0.157l0.157,0.157l0.158,0.158l0.157,0.157l0.157,0.157H19.5v0.158L19.64,47.757z M18.12,46.866l-0.158-0.157
	h0.158V46.866z M19.029,47.915h-0.297l-0.909-1.066l0.298,0.157h0.314l0.158,0.455l0.157,0.157L19.029,47.915z M19.186,47.618v0.158
	l-0.157-0.158H19.186z M17.211,47.757l-0.14-0.14v-0.157l0.175,0.122l0.122,0.174H17.211z M16.756,47.461l-0.157-0.158v-0.157
	l0.175,0.122l0.123,0.175h-0.14V47.461L16.756,47.461z M15.096,47.461l-0.158-0.158h0.158V47.461z M14.642,47.32l-0.122,0.175
	l-0.332-0.472h0.157l0.157,0.157L14.642,47.32L14.642,47.32z M17.665,45.8l-0.157-0.158v-0.157l0.455,0.297h0.158l0.157,0.157
	l0.157,0.157l-0.157,0.297l-0.157-0.157l-0.158-0.158l-0.157-0.157L17.665,45.8z M17.962,45.503v0.157l-0.157-0.157H17.962z
	 M16.302,46.866l-0.157-0.157v-0.157l0.454,0.454h-0.157L16.302,46.866L16.302,46.866z M14.501,47.006v-0.297h0.158l0.157,0.157
	v0.158h-0.157L14.501,47.006z M18.731,46.097h-0.158l-0.157-0.157l-0.158-0.157v-0.297h0.298l0.157,0.297h0.157L18.731,46.097
	L18.731,46.097z M19.029,46.097l-0.158,0.157L19.029,46.097z M19.326,46.412l-0.297,0.175l0.14-0.333L19.326,46.412z M19.482,46.552
	l-0.157,0.157L19.482,46.552z M19.64,46.866h-0.158l0.158-0.157V46.866z M14.048,46.552l-0.158-0.157h0.158V46.552z M17.368,46.254
	v-0.297h0.157L17.368,46.254z M17.665,46.254l-0.157,0.157L17.665,46.254z M17.962,46.552h-0.297l0.297-0.157V46.552z
	 M14.345,46.412h-0.157v-0.157h0.157V46.412z M4.522,46.412H4.365v-0.157L4.522,46.412z M13.75,45.346v0.297h-0.158l-0.157-0.157
	v0.157l-0.157-0.157h0.157v-0.14h-0.157v-0.157h0.157v-0.297h-0.157v-0.158h0.314l0.158,0.158v0.157l0.157-0.157l0.297,0.454v0.751
	H13.89L13.436,45.8h0.455L13.75,45.346L13.75,45.346z M4.382,45.958H4.225V45.8L4.382,45.958z M15.096,45.8h-0.158v-0.158h0.158
	V45.8z M17.211,45.643v-0.157l0.157-0.157v0.296L17.211,45.643z M4.225,45.643H4.068v-0.157L4.225,45.643z M16.756,45.346
	l-0.332-0.262l-0.157,0.087l0.332,0.175l0.157,0.157v0.157c-0.419-0.28-0.559-0.28-0.611-0.909l0.909,0.751h-0.157L16.756,45.346z
	 M14.729,45.276c0,0-0.105-0.053-0.087-0.088L14.729,45.276z M14.642,45.503l-0.175-0.123l0.175-0.332h0.158l0.157,0.157v0.297
	H14.642z M4.837,45.049v-0.315h0.157l0.157,0.455H4.994L4.837,45.049z M17.962,45.206l-0.157-0.157v-0.157l-0.157-0.158
	l-0.157-0.157l-0.297-0.455l-0.297-0.454l-0.158-0.157v-0.455h0.158l0.157,0.157l0.157,0.157l0.157,0.297l0.157,0.297l0.158,0.157
	l0.157,0.297l0.157,0.158v0.296h0.123v0.297L17.962,45.206L17.962,45.206z M17.211,44.297l0.157,0.454l-0.157-0.158h-0.07
	l-0.245-0.122l0.175-0.174H17.211z M17.822,45.346l-0.751-0.612l0.454,0.158l0.158,0.157l0.157,0.157v0.14H17.822z M17.071,44.14
	l-0.158-0.158L17.071,44.14z M15.096,45.049h-0.158v-0.157L15.096,45.049z M14.345,44.437l0.157-0.296l0.298,0.296l-0.298,0.297
	l-0.157-0.157V44.437z M14.799,44.892L14.799,44.892z M14.799,44.594l0.157,0.158L14.799,44.594z M13.139,44.297l-0.158-0.455
	v-0.158l0.909,1.049h-0.14l-0.158-0.157h-0.314L13.139,44.297z M4.68,44.437l0.157-0.139l0.157,0.296H4.837L4.68,44.437z
	 M4.837,43.982L4.68,43.825L4.837,43.982z M4.68,44.14l-0.158-0.158L4.68,44.14z M4.225,43.528l-0.157-0.296h0.157V43.528z
	 M12.684,43.231l-0.174-0.297l0.332,0.14L12.684,43.231z M4.382,42.776v-0.297l0.158,0.297H4.382z M15.848,42.637l-0.158-0.157
	h0.158V42.637z M4.382,42.183H4.225v-0.158L4.382,42.183z M2.862,41.728v-0.751l0.174,0.594h0.28v0.454l-0.297,0.297L2.862,41.728z
	 M3.176,42.934v-0.612l0.175,0.297l0.122-0.14l0.175,0.455H3.176z M3.316,42.183l0.157,0.157L3.316,42.183z M4.225,41.868H4.068
	V41.71L4.225,41.868z M3.771,41.868l-0.157-0.14h0.157V41.868z M4.068,41.431h-0.14v-0.157L4.068,41.431z M15.096,41.274
	l-0.158-0.158h0.158V41.274z M3.614,41.116l-0.14-0.14h0.14V41.116z M3.928,40.819H3.771v-0.157L3.928,40.819z M2.722,40.662V40.05
	l0.158,0.612H2.722z M14.799,40.522l-0.158-0.158h0.158V40.522z M3.474,40.522l-0.157-0.297h0.157V40.522z M14.642,40.208
	l-0.157-0.157h0.157V40.208z M15.096,38.704l0.157,0.158v0.157l-0.157,0.455h-0.158l-0.157-0.158v-0.157l-0.244-0.629
	c-0.018,0.209,0.279,0.944-0.07,0.944v-0.297l-0.157-0.297l0.018-0.454l0.157-0.297l0.175,0.122l0.157-0.105l-0.175-0.332h0.158
	l0.157,0.297l0.157,0.157v0.437H15.096z M14.642,39.911l0.158-0.455l0.157,0.297l-0.157,0.297L14.642,39.911L14.642,39.911z
	 M14.957,40.522l0.157-0.454v0.454H14.957z M14.345,39.159l-0.157-0.157L14.345,39.159z M15.253,39.911h-0.157v-0.158h0.157V39.911z
	 M3.316,39.911l-0.157-0.297l0.017-0.769h0.157v0.909h0.158v-0.454l0.297,0.751H3.614L3.316,39.911z M14.188,38.862L14.03,38.25
	h0.158V38.862z M3.176,38.547L3.019,38.39h0.157V38.547z M3.316,33.724c0-0.332-0.122-1.818,0.157-1.818v1.66l0.297-0.157
	l0.297,0.192v0.577l0.786,0.402l-0.629,0.052l0.14,0.454l-0.333,0.263c0.228,0.437,0.175-0.087,0.175,0.489
	c0,0.07-0.088,0.262-0.105,0.21c0-0.035-0.018,0.122-0.052,0.104L3.875,36.03l0.193-0.314l-0.158-0.332l0.192-0.751H3.771
	l0.14,0.454H3.474l0.297,0.175l-0.157,0.262l0.175,0.297l-0.07,0.455H3.474v1.049c0,0.594,0.297,0.087,0.297,0.909H3.614v-0.454
	h-0.14v0.909H3.316V35.96h-0.14v-0.751h0.157v-1.486H3.316z M14.048,37.201l-0.158-0.157h0.158V37.201z M13.89,36.747l-0.157-0.157
	h0.157V36.747z M14.501,36.292l-0.157-0.455h0.157V36.292z M6.34,35.523L6.34,35.523z M5.92,35.995l0.14-0.751
	c0.35,0.035,0.717,0.279,0.717,0.594c0,0.21-0.21,0.297-0.455,0.297C6.043,36.135,6.078,36.083,5.92,35.995L5.92,35.995z
	 M2.862,35.523l-0.157-0.751h0.157V35.523z M14.642,35.086v-0.454h0.158l0.157,0.297v0.156H14.642L14.642,35.086z M3.316,31.451
	v0.455h-0.14v-0.455H3.316z M3.019,32.063v-0.157l0.157,0.157H3.019z M2.565,33.409v-1.207h0.157l0.158,0.91l-0.158,0.296H2.565z
	 M3.019,33.724L3.019,33.724z M2.722,33.566l0.158,0.297H2.722l-0.157-0.14v-0.158H2.722z M5.256,32.587l0.314,0.104L5.256,32.587z
	 M5.134,31.906c0-0.175,0.21-0.35,0.297-0.455l-0.175,0.595h0.314l0.158,0.751l-0.332,0.437l-0.577-0.158l-0.437,0.349l-0.087-0.628
	L4.19,32.5h0.314v0.297l0.734-0.35C5.187,32.08,5.134,32.255,5.134,31.906z M10.412,32.972c0.018-0.419,0.105-0.367,0.455-0.454
	v0.454H10.412z M3.019,32.814V32.36h0.157v0.454H3.019z M14.188,32.36v-0.297H13.89v-0.751h0.158v0.454l0.157-0.297h0.157v0.909
	L14.188,32.36z M3.771,30.7l0.297,0.174v0.577l0.437-0.175l0.018,0.489c-0.49-0.017-0.751,0.053-0.751-0.454
	c0-0.332,0.104-0.454-0.157-0.454V30.7H3.771z M10.412,28.271l0.175-0.28l0.577,0.175l-0.088,1.311
	c0.751-0.472,0.053-0.262,0.699-0.752v0.297l0.455-0.14c-0.088,0.717,0.209,0.245-0.455,0.595l0.332,0.437l-0.192,0.315h-0.28
	c-0.053-0.612-0.035-0.63-0.455-0.455l-0.14-0.455l-0.646,0.577l0.332,0.035l-0.192,0.594l0.21-0.28h0.577l0.174,0.437l0.42,0.018
	v0.297h-0.437l-0.175,0.594l-0.419-0.314l-0.018,0.629l0.437-0.175c-0.332,0.489,0.104,0.28-0.595,0.332v-0.455h-0.297l0.333-0.262
	l-0.473-0.035v0.297l-0.296-0.157l0.332,0.751l-0.35,0.018v0.297H9.661V32.22l-0.437,0.175l0.262-0.367l0.035-0.577l0.35-0.419
	l0.245-0.035v0.297c0.402-0.192-0.123-0.157,0.455-0.157c0.017,0,0.297,0.157,0.297,0.157l0.455-0.175
	c-0.42-0.35-0.314-0.279-1.049-0.279v-0.611H9.976l-0.123-0.612c0.368-0.192-0.157-0.14,0.419-0.14h0.455
	c-0.332-0.49-0.245-0.105-0.297-0.752h0.612v-0.297L10.412,28.271L10.412,28.271z M3.019,29.634l0.157-0.297h0.157l0.158,0.612
	v0.909l-0.158,0.297H3.176v-0.612H3.019v0.752l-0.157-0.909L3.019,29.634z M2.722,32.063v-0.751l0.158,0.751H2.722z M40.771,67.105
	v-0.297h0.297v0.157l-0.157,0.157L40.771,67.105L40.771,67.105z M41.225,66.493h-0.158v-0.157h0.158V66.493z M43.042,65.585
	l0.455,0.156L43.2,65.898l-0.297,0.158l-0.454,0.157l-0.612-0.157l0.297-0.158l0.612-0.157L43.042,65.585z M41.382,66.196
	l0.454,0.157h-0.454V66.196z M43.794,65.13h-0.158v-0.157h0.158V65.13z M39.722,64.99l0.296-0.157h0.157v0.297h-0.454V64.99
	L39.722,64.99z M48.775,64.99h-0.157v-0.157h0.157V64.99z M44.703,64.833h-0.158v-0.157h0.158V64.833z M40.474,64.676l0.454-0.157
	h0.157v0.297l-0.454,0.157h-0.315v-0.157L40.474,64.676L40.474,64.676z M41.225,64.378l0.297-0.157h0.157v0.297h-0.455V64.378
	L41.225,64.378z M42.134,64.221h-0.157v-0.158h0.157V64.221z M48.478,64.081h-0.297v-0.157h0.297V64.081z M37.904,64.081v-0.297
	h0.297l0.297,0.157v0.158L37.904,64.081L37.904,64.081z M40.019,63.767h-0.296v-0.157h0.296V63.767z M38.97,63.47l0.157-0.157h0.297
	v0.297l-0.297,0.157H38.97V63.47z M42.885,63.627l0.297,0.157L42.885,63.627z M42.588,63.767l0.297,0.157L42.588,63.767z
	 M42.291,63.924l0.297,0.157h-0.297V63.924z M42.291,63.33h-0.157v-0.157h0.157V63.33z M44.248,62.106l0.157-0.297h0.315v-0.157
	h0.314v-0.157l0.332,0.018l-0.174,0.122l-0.297,0.157l-0.297,0.157l-0.157,0.157H44.248z M36.698,62.718l-0.157-0.157h0.157V62.718z
	 M35.946,62.718l0.612,0.157l-0.455,0.157h-0.297v-0.157L35.946,62.718z M42.291,62.106c0.035-0.035,0.087,0.088,0.087,0.088
	C42.36,62.194,42.256,62.141,42.291,62.106z M39.11,61.215l0.333,0.262l0.262-0.123l0.314,0.018v0.157l-0.157,0.157l-0.455,0.158
	H39.11v0.157h-0.454v0.157l-0.455,0.157l-0.297,0.158l-0.455,0.157l-0.455-0.157l0.297-0.158l0.298-0.157l0.297-0.157l0.454-0.157
	h0.297v-0.158l0.157-0.157l0.157-0.297h0.157V61.215L39.11,61.215z M39.425,61.215L39.425,61.215z M36.855,62.718v-0.157
	l0.158,0.157H36.855z M49.386,61.058h-0.157V60.9h0.157V61.058z M39.879,60.9l0.297-0.157h0.158v0.297l-0.297,0.157h-0.157V60.9z
	 M49.684,60.9h-0.157v-0.157h0.157V60.9z M50.138,60.306l0.157-0.157h0.157v0.297l-0.157,0.157l-0.297-0.157L50.138,60.306
	L50.138,60.306z M49.841,60.761v-0.157l0.157,0.157H49.841z M50.593,60.306l0.157-0.157h0.157v0.297H50.61L50.593,60.306
	L50.593,60.306z M43.339,60.306L43.339,60.306z M41.836,60.306H41.54v-0.157h0.297V60.306z M40.928,59.992l-0.297-0.157h0.297
	V59.992z M40.316,59.992l0.297,0.157L40.316,59.992z M40.176,60.306v-0.157l0.158,0.157H40.176z M51.204,60.149h-0.157v-0.157h0.157
	V60.149z M50.89,59.992h-0.157v-0.14h0.157V59.992z M43.2,59.24L43.2,59.24z M42.588,59.398L42.588,59.398z M40.316,59.398h-0.157
	V59.24h0.157V59.398z M52.253,58.646h-0.157l0.157-0.157h0.157L52.253,58.646z M39.267,59.1H39.11v-0.157h0.157V59.1z
	 M38.813,58.786l-0.297-0.157h0.297V58.786z M38.201,58.786l0.297,0.157L38.341,59.1h-0.454v-0.157L38.201,58.786z M41.994,58.943
	v-0.297h0.157v0.297H41.994z M40.176,58.646v-0.157l0.158,0.157H40.176z M53.005,58.034h-0.158l0.158-0.157h0.157L53.005,58.034z
	 M40.631,57.44l0.157-0.157h0.297v0.157l-0.157,0.297l-0.297,0.157l-0.297,0.157l-0.158,0.157l-0.454,0.157l-0.297,0.158h-0.612
	v-0.158l0.297-0.157l0.297-0.157l0.455-0.157l0.297-0.157h0.297L40.631,57.44z M40.316,57.44h0.158l-0.158,0.14V57.44z M45,58.191
	h-0.14v-0.158h0.157v0.158H45L45,58.191z M42.273,57.562l-0.314,0.104L42.273,57.562z M41.085,58.646l0.297,0.157L41.085,58.646z
	 M40.771,58.786l0.297,0.157L40.771,58.786z M40.631,59.1v-0.157l0.157,0.157H40.631z M41.54,57.125h-0.157v-0.158h0.157V57.125z
	 M55.889,56.374v-0.157l0.157-0.157v0.157L55.889,56.374z M50.365,56.427l-0.297,0.139l0.069,0.087l-0.314,0.192l-0.122-0.175h0.157
	L50.365,56.427L50.365,56.427z M45.314,56.671h0.227l-0.385,0.297v-0.157L45.314,56.671L45.314,56.671z M42.885,56.374v0.158
	l-0.297,0.157h-0.751l-0.297,0.157l-0.297-0.157l0.157-0.157l0.297-0.158l0.297-0.157l0.157-0.157l0.297-0.157l0.297-0.157
	l0.157-0.158L43.2,55.43l0.158-0.157l0.157-0.156l0.454-0.158l0.297-0.157l0.158-0.157l0.157-0.157l0.157-0.157h0.454v-0.298h0.158
	v0.455l-0.752,0.455l-0.437,0.175l0.14,0.122h0.157l0.297-0.297l0.158,0.297l-0.298,0.158h-0.157v0.157h-0.314v0.157h-0.157v0.157
	h-0.315v0.157h-0.314v0.297H43.2L42.885,56.374L42.885,56.374z M43.2,56.077h-0.157l-0.297,0.157l-0.333,0.122l0.175-0.122
	l0.455-0.298l0.454-0.296l0.333-0.333l0.104,0.157l-0.123,0.175h-0.157l-0.158,0.157l-0.157,0.157h-0.157L43.2,56.077L43.2,56.077z
	 M40.928,56.828l0.297,0.157h-0.297V56.828z M58.003,53.962h-0.157l-0.158,0.157l-0.297,0.455l-0.455,0.455v-0.158l0.175-0.122
	l0.123-0.175v-0.157h0.157l0.157-0.298l0.158-0.157l0.157-0.157v-0.157l0.296-0.297h0.158l-0.158,0.157v0.157l-0.157,0.158V53.962
	L58.003,53.962z M56.657,55.291l0.104,0.139l-0.734,0.629v-0.157L56.657,55.291z M48.478,53.805l0.158-0.157h0.157l0.157-0.158
	l0.158-0.157l0.122-0.174l-0.104-0.14l-0.018,0.017l-0.174,0.315l-0.158,0.157h-0.157l-0.157,0.157l-0.157,0.158h0.174V53.805z
	 M45.909,53.962h-0.157v-0.157h0.157V53.962z M50.89,53.805l0.157-0.297h0.157l-0.157,0.297l-0.157,0.157l-0.175,0.122l-0.122,0.175
	h-0.158L50.89,53.805z M49.841,54.713l-0.157,0.298h-0.158l0.158-0.298H49.841z M52.41,52.441h-0.157v-0.157h0.157V52.441z
	 M47.272,52.441h-0.297l-0.419,0.49l0.087,0.14c0.245-0.35,0.472-0.419,0.787-0.629l0.175-0.122L47.272,52.441L47.272,52.441z
	 M49.089,50.781L49.089,50.781z M58.597,52.756L58.597,52.756z M49.386,50.03v-0.297h0.298L49.386,50.03z M64.557,46.552
	L64.557,46.552z M65.099,44.594v-0.296h0.296v0.157l-0.157,0.157L65.099,44.594L65.099,44.594z M65.396,43.685v-0.314h0.157v0.157
	h0.158v0.157h-0.158v0.158l-0.157,0.297h-0.157v-0.455H65.396z M65.693,43.231v-0.297h0.157v0.297H65.693z M54.228,41.571v-0.297
	h0.157v0.297H54.228z M54.367,40.819l0.158-0.297v0.297H54.367z M54.822,40.364v-0.296h0.157v0.296H54.822z M66.759,37.795v-0.454
	h-0.158L66.759,37.795z M66.305,39.316c0.262-0.227,0.157-1.049,0.157-1.502l0.297,0.156v0.158
	c-0.262,0.227-0.158,1.048-0.158,1.503l-0.157,0.751h-0.297v-0.157L66.305,39.316z M55.119,39.316h-0.157v-0.157h0.157V39.316z
	 M55.119,39.002h-0.157v-0.158h0.157V39.002z M66.602,37.201h0.158v-0.297h-0.158V37.201z M66.602,36.747h0.158v-1.503h-0.158
	V36.747z M66.759,35.086V34.93h-0.158v0.156H66.759z M66.602,34.772h0.158v-0.752h-0.158V34.772z M66.602,33.863h0.158v-0.455
	h-0.158V33.863z M66.602,33.269h0.158v-0.297h-0.158V33.269z M66.759,32.36v-0.158h-0.158v0.158H66.759z M66.305,32.202h-0.157
	v-0.139h0.157V32.202z M66.602,31.451l-0.157,0.157v-0.157H66.602z M66.602,32.063h0.158v-0.455L66.602,32.063z M66.445,31.294
	v-0.612h0.157v0.612H66.445z M66.008,29.948l-0.158,0.157v-0.157H66.008z M66.147,30.245h-0.14l0.157-0.157v0.157H66.147z
	 M66.147,28.882v-1.206h0.157l0.157,0.909v0.158L66.147,28.882z M66.305,29.791l0.157-0.909L66.305,29.791z M66.305,29.948
	l0.297-0.157v0.751h-0.157l-0.158-0.454L66.305,29.948L66.305,29.948z M65.693,28.585v-0.454h0.297v0.751h-0.157L65.693,28.585
	L65.693,28.585z M65.553,27.676v-0.769h0.158v0.157h0.157v0.909H65.71L65.553,27.676z M65.396,26.768v-0.455l0.157-0.156v0.594
	h-0.157V26.768z M64.941,24.967l-0.157-0.296v-0.158h0.297v0.454H64.941L64.941,24.967z M18.871,19.829l0.611-0.454v0.611h-0.157
	l-0.157-0.157H18.871z M19.78,19.077h-0.158l0.158-0.157V19.077z M20.689,18.623v-0.157l-0.612,0.157H20.689z M20.846,18.308v-0.157
	l-0.157,0.157H20.846z M20.532,17.102l0.157-0.157h0.157v0.157l-0.279,0.333l-0.175-0.175L20.532,17.102z M20.392,15.896
	l0.157-0.157h0.157L18.889,17.4v-0.158l0.175-0.122l0.123-0.175l0.157-0.157l0.175-0.123l0.122-0.174l0.157-0.157l0.158-0.157
	l0.157-0.157L20.392,15.896z M19.029,16.963l-0.158,0.157L19.029,16.963z M19.482,16.508l-0.157,0.157L19.482,16.508z
	 M20.986,17.557l0.717-0.787l-0.087-0.14l-0.158,0.21l-0.174-0.175v-0.157l0.454-0.157h0.157v-0.158h0.158v0.158h-0.158v0.157h0.158
	v0.157h-0.158v0.298l-0.297,0.157l-0.157,0.157l-0.158,0.297h-0.297V17.557L20.986,17.557z M23.555,16.054l-0.157-0.157h0.157
	V16.054z M23.101,16.054h0.297v0.297l-0.158,0.157l-0.157,0.157h-0.157v-0.454L23.101,16.054z M31.105,15.599l0.297-0.157h0.158
	v0.297L31.105,15.599L31.105,15.599z M30.651,15.739l0.454,0.157l-0.297,0.157l-0.297,0.157h-0.455v-0.157l0.297-0.157
	L30.651,15.739z M24.761,14.987v0.297h-0.455l-0.157,0.157l-0.158,0.157v0.297h0.158l0.297-0.157v-0.315h0.611l0.157-0.157v-0.455
	h-0.297L24.761,14.987z M29.759,15.599v-0.314h0.297v0.157l-0.157,0.157H29.759z M25.827,14.987v-0.157h0.455v-0.157h0.157
	l0.157-0.157h0.455l0.157-0.455v-0.157h-0.455l-0.158,0.157l-0.157,0.157h-0.472l-0.157,0.158v0.455h-0.297v0.157H25.827
	L25.827,14.987z M22.35,14.533v-0.157l0.157-0.297l0.158-0.157h0.314l0.157,0.157v0.157l-0.157,0.157l-0.157,0.157l-0.157,0.157
	h-0.298L22.35,14.533z M14.048,14.987v0.158l-0.158,0.14l-0.14-0.297l-0.158,0.158l-0.157,0.14l-0.454,0.612l-0.157,0.297
	l-0.157,0.158l-0.14,0.297l-0.296-0.14v-0.157l0.157-0.158l0.157-0.157l0.158-0.297h0.157v-0.315l0.157-0.157h0.158V14.97
	l0.157-0.157l0.157-0.157l0.157-0.157l0.157-0.157v-0.104h0.158l0.157-0.157l0.157-0.157h0.297v-0.297l0.157-0.157l0.297-0.158
	l0.158-0.157l0.157-0.297l0.158-0.157l0.157-0.157l0.157-0.158l0.157-0.157l0.157-0.157l0.158-0.158l0.157-0.157l0.297-0.158
	l0.158-0.157h0.157v-0.157h0.018l0.157-0.297l0.157-0.157l0.158-0.157v-0.157h0.314v-0.157h0.263v-0.158l0.157-0.156h0.314V9.885
	h0.157l0.297-0.158l0.157-0.157H19.5V9.272h0.455V9.115l0.157-0.157L20.409,8.8l0.158-0.157h0.157l0.157-0.157l0.157-0.158h0.454
	l0.158-0.157h0.157l0.158-0.158V7.857h0.455l0.157,0.157l-0.157,0.158h-0.297l-0.157,0.157l-0.158,0.158l-0.296,0.157L21.354,8.8
	l-0.298,0.158l-0.157,0.157h-0.297v0.157h-0.367V9.43h-0.315v0.157l-0.157,0.158h-0.157l-0.158,0.157l-0.157,0.157h-0.158v0.157
	h-0.157l-0.157,0.157l-0.297,0.158l-0.157,0.157l-0.087,0.228l-0.157,0.14l-0.158,0.157l-0.157,0.297l-0.157,0.157l-0.157,0.157
	l-0.123,0.14l-0.157,0.157l-0.297,0.158v0.157h-0.157l-0.157,0.157l-0.157,0.157h-0.157v0.157h-0.158l-0.157,0.158v0.157h-0.122
	L15.69,13.38l-0.157,0.297l-0.158,0.157l-0.157,0.157l-0.157,0.157h-0.262v0.297l-0.158,0.158l-0.157,0.157l-0.157,0.157v0.157
	H14.17L14.048,14.987z M13.89,14.848l0.175-0.332l0.105,0.157l-0.122,0.174H13.89z M24.307,14.394l-0.157-0.157v-0.157h0.455v0.157
	l-0.157,0.157H24.307z M18.417,14.079h0.157l-0.122,0.175L18.417,14.079z M18.574,13.939h0.158l-0.123,0.175L18.574,13.939z
	 M18.731,13.781h0.157l-0.122,0.175L18.731,13.781z M18.871,13.625L18.871,13.625z M19.186,13.485l0.157,0.157L19.186,13.485z
	 M19.186,13.939l0.157-0.158L19.186,13.939z M17.962,14.987l0.158-0.157L17.962,14.987z M30.651,13.17L30.651,13.17z M20.392,12.419
	h0.297l-0.28,0.332l-0.175-0.175L20.392,12.419z M20.689,12.279l0.157,0.157L20.689,12.279z M20.986,12.121v0.158l-0.157-0.158
	H20.986z M33.675,12.419v-0.158h0.296l0.158,0.158H33.675L33.675,12.419z M19.326,11.667l0.297-0.157h0.455v0.157l-0.158,0.157
	l-0.279,0.14l-0.158,0.157l-0.157,0.298l-0.612,0.157l-0.157,0.158l-0.158,0.454H18.12l-0.158,0.157l-0.157,0.297h-0.297v-0.157
	l0.157-0.455l0.157-0.158l0.298-0.157l0.157-0.158l0.157-0.157l0.158-0.157l0.157-0.158l0.158-0.157l0.157-0.158L19.326,11.667z
	 M18.836,12.227l0.507-0.367l0.157,0.104L18.836,12.227z M21.301,12.121h-0.158v-0.157h0.158V12.121z M24.464,11.667L24.464,11.667z
	 M28.396,11.51v-0.157l0.157,0.157H28.396z M20.234,11.51l-0.157-0.157v-0.157h0.297v0.297h-0.14V11.51z M28.991,10.916v0.157
	h-0.158v-0.157H28.991z M39.564,10.007V9.85h-0.297V9.692L39.11,9.535h-0.157l-0.157-0.158L38.184,9.22h-1.188V9.063h-0.751V8.906
	c0.647,0,2.395-0.228,2.727,0.157l0.612,0.157h0.611l0.157,0.157h0.752l0.157,0.158h0.454l0.158,0.157h0.297l0.157,0.157
	l0.296,0.157h0.297l0.157,0.157l0.157,0.158h0.297l0.157,0.157l0.297,0.157h0.297l0.157,0.157h0.157l0.157,0.157l0.297,0.158h0.472
	v-0.298l0.455,0.298l0.454,0.156h0.455l0.157,0.297l0.297,0.158l0.297,0.157h0.158l0.174,0.123l0.123,0.175l0.156,0.157l0.158,0.157
	l0.297,0.157h0.454l0.752,0.909l0.157,0.157l0.157,0.157l0.157,0.158h0.298l1.171,1.241l-0.105,0.123h-0.245l-0.612-0.612
	l-0.158-0.157h-0.157l-0.157-0.157l-0.157-0.158l-0.157-0.157l-0.157-0.157h-0.594l-0.157-0.297l-0.158-0.157l-0.157-0.157
	l-0.296-0.157h-0.158L48.25,13.1l-0.122-0.174h-0.611l-0.157-0.297l-0.158-0.158h-0.157l-0.174-0.122l-0.123-0.175l-0.158-0.157
	l-0.297-0.157h-0.157l-0.157-0.157h-0.297l-0.454-0.455H45.07l-0.297-0.157l-0.455-0.157h-0.454l-0.157-0.158h-0.297l-0.157-0.157
	h-0.297l-0.297-0.157h-0.07l-0.297-0.157h-0.297l-0.157-0.157h-0.751c-0.28,0-1.206,0.122-1.206-0.158h-0.314L39.564,10.007
	L39.564,10.007z M19.64,9.552c0.035-0.035,0.087,0.087,0.087,0.087S19.605,9.587,19.64,9.552z M36.086,8.958v0.157h-0.455V8.958
	H36.086z M29.428,8.888l0.314-0.104L29.428,8.888z M28.536,8.347l0.455-0.158h0.157v0.297l-0.297,0.157h-0.297V8.347H28.536z
	 M30.196,8.137L30.196,8.137z M30.965,7.438h-0.297V7.28h0.297V7.438z M28.991,6.983l0.454-0.157h0.297l0.297-0.157l0.612-0.157
	h0.297V6.354h0.157l0.297-0.157l0.751-0.157c0.262,0,1.049,0.122,1.049-0.158c0.332,0,1.818,0.122,1.818-0.157h0.909v0.157
	L35.772,6.04h-0.157c-0.297,0-1.503-0.123-1.503,0.157c-0.262,0-1.049-0.122-1.049,0.157c-0.262,0-1.049-0.122-1.049,0.158
	L31.56,6.668l-0.455,0.157l-0.454,0.157h-0.612V7.14l-0.751,0.158l-0.611,0.157h-0.297V7.298l0.157-0.158L28.991,6.983L28.991,6.983
	z M33.08,6.686l-0.454,0.157c0,0.262,0.786,0.158,1.049,0.158c0-0.28,0.926-0.158,1.206-0.158l0.455-0.157V6.529h-1.206
	C34.129,6.809,33.342,6.686,33.08,6.686z M32.311,6.983V7.14h0.297L32.311,6.983z M30.511,6.231V6.074h-0.297v0.157H30.511z
	 M31.263,6.074h0.611l0.158-0.158V5.76l-0.455-0.157h-0.454V5.76L31.263,6.074L31.263,6.074z M30.965,5.935V5.777h-0.297v0.157
	H30.965z M33.675,5.777V5.62h-0.612L33.675,5.777z M32.923,5.935h0.157l-0.157-0.157V5.935z M34.426,5.62h-0.611l-0.752-0.157v-0.14
	l0.158-0.157h0.612l0.454-0.158h1.206V4.851h0.157v0.157l0.157-0.157h2.29l0.157,0.297h-0.612l-0.157,0.157l-0.297,0.158H35.37V5.62
	H34.426z M32.626,5.62h0.157l0.157-0.157v-0.14h-0.314V5.62L32.626,5.62z M31.717,4.117V3.959H31.56L31.717,4.117z M30.965,4.117
	l0.612,0.157L30.965,4.117z M30.354,4.274l0.612,0.156V4.274H30.354z M30.808,4.571v0.332l-0.297-0.175h-0.158l-0.909,0.157
	l-0.612,0.157L28.379,5.2l-0.297,0.123h-0.157V5.48h-0.297L27.47,5.637l-0.454,0.157l-0.455,0.158l-0.454,0.157L25.81,6.267
	l-0.157,0.157l-0.297,0.157v0.158h0.454l0.297-0.158l0.297-0.157l0.297-0.157l0.611-0.158l0.297-0.157l0.455-0.158l0.454-0.157
	l0.454-0.157l0.455-0.157l0.751-0.157c0-0.262,0.717-0.228,0.909,0h0.157l0.157-0.158l0.158-0.157v0.157h0.454l0.297-0.157
	l0.455-0.158l0.297-0.157h0.455V4.379h0.157l0.454,0.157c0-0.262,0.716-0.228,0.909,0h0.455V4.379l-0.157-0.158h0.297v0.297h0.298
	V4.274h0.157v0.297h0.752V4.274h1.957v0.156h0.157V4.274h0.157V4.117h-0.611V3.662h0.297V3.505l-0.157-0.157H38.48v0.157h-0.157
	v-0.14l-0.157-0.157h-1.957V2.911h0.314l0.157-0.157v-0.14h-0.734v0.157h-0.157l-0.157-0.454l-0.157,0.297v0.157h-0.611v0.158
	h-0.157l0.157,0.157v0.157h0.297V3.051h0.909l-0.123,0.157l-0.454,0.157v0.157H34.74L34.286,3.68h-0.157l-0.158,0.157l-0.454,0.157
	L33.36,4.151V3.855h-0.157V3.662h-0.157v0.157h0.157v0.455h-0.157v0.156h-1.679v0.158H31.21V4.431L30.808,4.571L30.808,4.571z
	 M30.057,4.414l0.297,0.157h-0.297V4.414z M38.97,5.166h-0.297V5.008h0.297V5.166z M38.358,4.868h-0.157l0.157,0.157V4.868z
	 M33.832,4.729V4.571l0.157,0.157H33.832z M33.08,4.117h-0.157V3.959h0.157V4.117z M29.899,3.662l0.612-0.157h0.612v0.157
	l-0.158,0.157h-0.314l-0.612,0.158h-0.157L29.899,3.662L29.899,3.662z M32.311,3.365l-0.455-0.157h0.455V3.365z M31.263,3.365
	l0.611,0.157h-0.611V3.365z M34.583,3.208V3.051l0.157,0.157H34.583z M34.286,3.051l-0.157-0.157h0.157V3.051z M33.989,3.208V3.051
	l0.157,0.157H33.989z M37.152,2.753h-0.297v-0.14h0.297V2.753z M35.946,2.299l-0.157-0.157h0.157V2.299z M36.244,2.159V2.002h0.158
	v0.157l0.297-0.157h0.909v0.157L37.45,2.316c-0.262,0-1.048-0.122-1.048,0.157h-0.158V2.159z M13.593,31.294h0.158v0.297
	l-0.158,0.298l-0.437-0.298v-0.297h0.297v0.157h0.158v-0.157H13.593z M13.436,31.154h-0.157V30.7h0.157V31.154z M13.436,29.791
	c0.035-0.035,0.087,0.087,0.087,0.087S13.418,29.826,13.436,29.791z M8.612,28.743l0.158,0.157l-0.158,0.157V28.743z M8.91,28.428
	H8.752v-0.297l0.158,0.157V28.428z M9.363,27.379l-0.157-0.297v-0.158h0.157V27.379z M9.521,26.47H9.363v-0.158h0.158V26.47z
	 M11.636,25.107l-0.157,0.157L11.636,25.107z M11.479,25.859l-0.157,0.157v-0.157H11.479z M16.162,24.967l-0.157-0.157h0.157V24.967
	z M16.005,25.264l-0.157-0.297L16.005,25.264z M15.55,25.561l0.158-0.297l0.157,0.612l-0.157,0.157H15.55V25.561z M11.775,24.513
	l0.175,0.454l-0.175-0.14V24.513z M11.321,24.198l0.123,0.332l-0.123-0.175V24.198z M8.001,23.149h0.157v-0.297l0.157,0.158
	l0.158,0.297H8.158v0.157l-0.157-0.157V23.149z M10.867,23.604l-0.158-0.157h0.158V23.604z M13.89,23.447L13.89,23.447z
	 M17.525,23.149h-0.157v-0.157h0.157V23.149z M14.799,21.943l-0.158,0.158L14.799,21.943z M14.642,23.149h0.158l-0.123,0.175
	l0.158,0.419c-0.612-0.594,0.262-0.018-0.49-0.297L14.642,23.149z M15.411,22.083h-0.157v-0.158h0.157V22.083z M14.345,22.695
	l-0.157,0.157L14.345,22.695z M14.501,22.398l-0.157,0.157L14.501,22.398z M11.479,22.538v0.157l0.157-0.297L11.479,22.538z
	 M6.794,22.538L6.637,22.38l-0.158-0.157l0.158-0.157v0.157h0.157V22.538z M17.665,22.695h-0.157v-0.157h0.157V22.695z
	 M9.958,22.398H9.8v0.157l0.158,0.297v-0.157h0.157V22.38h0.157v-0.314h0.158v-0.157l0.157-0.157v-0.297h0.158V21.14h0.157v-0.157
	l0.157-0.157v-0.297h0.158v-0.157h0.157l0.157-0.297l0.157-0.157l-0.157-0.454l-0.157,0.157l-0.157,0.297l-0.158,0.297l-0.157,0.157
	v0.157l-0.157,0.157v0.157h-0.158v0.315H10.43v0.157l-0.158,0.297l-0.157,0.157l-0.157,0.297V22.398z M6.952,22.083H6.794v-0.158
	h0.158V22.083z M13.96,21.699c0,0,0.053,0.104,0.088,0.087C14.065,21.769,13.96,21.699,13.96,21.699z M6.952,21.787H6.794v-0.158
	h0.158v-0.157l0.157-0.157v0.157L6.952,21.787z M7.092,21.035v-0.157l0.297-0.158v0.158L7.092,21.035z M10.412,20.126l-0.157-0.158
	h0.157V20.126z M10.115,20.423v-0.297l0.157,0.297H10.115z M11.933,19.217l-0.157-0.158h0.157V19.217z M11.636,19.217l0.087,0.297
	L11.636,19.217z M11.775,19.968h0.297v-0.454h-0.297V19.968z M12.073,19.375l0.158,0.157v-0.157h0.157l0.157-0.157l-0.157-0.297
	H12.23l-0.158,0.297V19.375z M8.752,18.466l0.158-0.158v-0.157H8.612L8.752,18.466z M8.612,18.763l-0.157-0.297L8.612,18.763z
	 M15.218,19.2l0.157-0.157c0.262,0.21-0.279,0.175,0.333,0.175c0.069,0,0.104-0.21,0.157-0.158l0.174,0.123
	c-0.35,0.385-0.332,0.21-0.472,0.629h-0.297l0.069-0.472L15.218,19.2L15.218,19.2z M10.57,19.829h-0.158v-0.157h0.158V19.829z
	 M10.57,19.217v0.297l0.157,0.157h0.157l0.157-0.157v-0.751h0.157v-0.157h0.158v-0.158l0.297-0.157l0.157-0.454l0.157-0.158
	l0.157-0.297l0.157-0.157v-0.157h0.158l-0.158-0.454l-0.157,0.157l-0.157,0.157v0.157l-0.157,0.158h-0.157V17.4l-0.175,0.157
	l-0.157,0.296l-0.157,0.297h-0.157v0.455h-0.158l-0.157,0.454l0.175,0.175l-0.158,0.105L10.57,19.217z M12.527,18.763l0.157-0.297
	h0.158v0.454l-0.158,0.157L12.527,18.763z M15.411,17.714l-0.157,0.157L15.411,17.714z M13.89,18.763h-0.14v-0.157h0.157v0.157
	H13.89z M12.981,18.168l0.158-0.158h0.296v0.158l-0.157,0.157h-0.297V18.168z M16.162,17.4l0.157-0.298L16.162,17.4z M14.501,16.648
	l-0.157-0.297h0.157v-0.158l0.158-0.157l0.157-0.157l0.157-0.157l0.157-0.297l0.157-0.157l0.158-0.157l0.157-0.157l0.157-0.158
	h0.297v0.297l-0.21,0.192H15.55v0.297l-0.157,0.157v0.297h-0.157v-0.157l-0.158,0.297l-0.157,0.157l-0.42,0.175V16.648z
	 M14.048,16.806l0.157-0.158l0.157,0.297h-0.297L14.048,16.806z M13.139,16.054v-0.297l0.437-0.332l0.017,0.332l-0.157,0.158
	l-0.157,0.157L13.139,16.054z M13.593,15.285l0.158,0.157L13.593,15.285z M14.957,16.648L14.957,16.648z M14.642,16.806v-0.158
	l0.158,0.158H14.642z M16.302,14.394l0.157-0.297h0.297v0.14l-0.157,0.297l-0.157,0.158L16.302,14.394z M16.162,14.848v-0.157
	l0.157,0.157H16.162z M13.75,12.576l-0.297-0.157h0.297V12.576z M13.296,12.279h-0.314v0.157h0.158l-0.158,0.157v-0.157h-0.157
	v0.157l-0.297,0.14v0.611H12.37l-0.157,0.157l-0.157,0.157l0.297,0.158l0.297-0.158v0.455h0.297l0.157-0.158v-0.157h0.158
	l0.157-0.157l0.157-0.157v-0.157h0.175V13.17h0.157v-0.454h0.157l0.157-0.455l0.157-0.297l0.158-0.157l0.297-0.158l0.157-0.157
	v-0.297h-0.297l-0.157,0.297l-0.158,0.157h-0.157l-0.157-0.157v0.157h0.157l-0.157,0.158l-0.175,0.157l-0.14,0.157v0.158h-0.297
	l-0.157-0.158V12.279z M11.775,13.939l0.157-0.158l0.158,0.298h-0.297v-0.14H11.775z M13.593,12.121l-0.157-0.157h0.157V12.121z
	 M14.188,11.212v0.315l0.297-0.157v-0.297h-0.157L14.188,11.212z M25.25,53.175l-0.157-0.157l0.105-0.105l0.209,0.157L25.25,53.175
	L25.25,53.175z M4.977,46.412l0.157,0.297l0.123,0.332l-0.123-0.174l-0.157-0.157v-0.157L4.645,45.8L4.977,46.412z M4.61,45.695
	l-0.297-0.454l0.35-0.035L4.61,45.695z M16.162,44.594h-0.157l-0.175-0.122L16.162,44.594z M14.799,41.868V41.71l-0.158-0.297
	l-0.157-0.157l-0.175-0.455h0.332v0.298l0.158,0.157l0.157,0.454v0.157l0.157,0.157v0.158h-0.157L14.799,41.868L14.799,41.868z
	 M14.048,40.068l0.157,0.157h-0.157l-0.158-0.157H14.048z M9.067,38.704l0.157,0.158v1.206H9.067v-0.315
	c-0.28,0-0.157-0.926-0.123-1.241L9.067,38.704z M19.326,18.623v-0.297h0.297v0.297H19.326z M52.865,59.24
	c0.035-0.035,0.07,0.07,0.087,0.087C52.952,59.328,52.829,59.275,52.865,59.24z M41.959,57.667l0.314-0.104L41.959,57.667z
	 M30.511,8.137L30.511,8.137z M59.663,15.442l0.157,0.157L59.663,15.442z M64.557,46.866L64.557,46.866z M58.597,52.756
	L58.597,52.756z M51.798,19.077l0.158,0.157v0.158l0.157,0.157h-0.157l-0.158-0.157l-0.157-0.158v-0.157l-0.174-0.297L51.798,19.077
	z M49.229,16.508l0.157,0.157l0.158,0.157l0.157,0.158l0.157,0.158l0.157,0.157l0.175,0.122l0.122,0.175l0.157,0.297l0.157,0.157
	l0.157,0.158l0.175,0.297l-0.472-0.437l-0.157-0.157l-0.158-0.157l-0.174-0.123l-0.123-0.175h-0.157l-0.157-0.157l-0.157-0.157
	l-0.158-0.158l-0.157-0.158l-0.157-0.157l-0.175-0.296L49.229,16.508z M53.005,16.193l0.157,0.158l0.157,0.157l0.158,0.157h-0.158
	l-0.157-0.157l-0.157-0.157l-0.158-0.158l-0.175-0.122L53.005,16.193z M29.742,8.783l-0.314,0.104L29.742,8.783z"/>
</svg>
